<svg enable-background="new 0 0 24 24" height="512" viewBox="0 0 24 24" width="512" xmlns="http://www.w3.org/2000/svg"><path d="m17.76 5.91-8.44-5.81c-.19-.13-.45-.13-.64 0l-8.44 5.81c-.15.11-.24.28-.24.47v10.31c0 .72.59 1.31 1.31 1.31h7.7c-.01-.17-.01-.33-.01-.5 0-4.69 3.81-8.5 8.5-8.5.17 0 .33 0 .5.01v-2.63c0-.19-.09-.36-.24-.47z" fill="#cfd8dc"/><path d="m9.81 13.88h-6.06v4.12h5.26c-.01-.17-.01-.33-.01-.5 0-.87.13-1.71.37-2.5.12-.39.27-.76.44-1.12z" fill="#78909c"/><path d="m3.75 10.88v4.12h5.62c.12-.39.27-.76.44-1.12.32-.68.73-1.31 1.21-1.88.35-.41.73-.78 1.15-1.12z" fill="#90a4ae"/><path d="m13.5 8.25h-9c-.41 0-.75.34-.75.75v3h7.27c.35-.41.73-.78 1.15-1.12.63-.51 1.32-.92 2.08-1.23v-.65c0-.41-.34-.75-.75-.75z" fill="#78909c"/><circle cx="17.5" cy="17.5" fill="#2196f3" r="6.5"/><g fill="#fff"><path d="m17.5 21c-.414 0-.75-.336-.75-.75v-5.5c0-.414.336-.75.75-.75s.75.336.75.75v5.5c0 .414-.336.75-.75.75z"/><path d="m20.25 18.25h-5.5c-.414 0-.75-.336-.75-.75s.336-.75.75-.75h5.5c.414 0 .75.336.75.75s-.336.75-.75.75z"/></g></svg>