<?xml version="1.0" encoding="UTF-8" standalone="no"?>
<svg
   xmlns:dc="http://purl.org/dc/elements/1.1/"
   xmlns:cc="http://creativecommons.org/ns#"
   xmlns:rdf="http://www.w3.org/1999/02/22-rdf-syntax-ns#"
   xmlns:svg="http://www.w3.org/2000/svg"
   xmlns="http://www.w3.org/2000/svg"
   xmlns:sodipodi="http://sodipodi.sourceforge.net/DTD/sodipodi-0.dtd"
   xmlns:inkscape="http://www.inkscape.org/namespaces/inkscape"
   id="Capa_1"
   enable-background="new 0 0 497 497"
   height="512"
   viewBox="0 0 32 32"
   width="512"
   version="1.1"
   sodipodi:docname="cash-register.svg"
   inkscape:version="1.0.2 (e86c870879, 2021-01-15, custom)">
  <metadata
     id="metadata97">
    <rdf:RDF>
      <cc:Work
         rdf:about="">
        <dc:format>image/svg+xml</dc:format>
        <dc:type
           rdf:resource="http://purl.org/dc/dcmitype/StillImage" />
        <dc:title></dc:title>
      </cc:Work>
    </rdf:RDF>
  </metadata>
  <defs
     id="defs95" />
  <sodipodi:namedview
     pagecolor="#ffffff"
     bordercolor="#666666"
     borderopacity="1"
     objecttolerance="10"
     gridtolerance="10"
     guidetolerance="10"
     inkscape:pageopacity="0"
     inkscape:pageshadow="2"
     inkscape:window-width="1920"
     inkscape:window-height="1051"
     id="namedview93"
     showgrid="false"
     units="px"
     inkscape:pagecheckerboard="false"
     inkscape:snap-page="true"
     inkscape:snap-bbox="true"
     inkscape:bbox-paths="true"
     inkscape:bbox-nodes="true"
     inkscape:snap-object-midpoints="true"
     inkscape:snap-center="true"
     inkscape:zoom="1.0377239"
     inkscape:cx="327.21866"
     inkscape:cy="280.23242"
     inkscape:window-x="-9"
     inkscape:window-y="-9"
     inkscape:window-maximized="1"
     inkscape:current-layer="Capa_1" />
  <rect
     style="fill:#d5ffe6;fill-rule:evenodd;stroke-width:0.156585;fill-opacity:0.9963637"
     id="rect2629"
     width="32"
     height="32"
     x="0"
     y="0"
     ry="6.2859998" />
  <g
     id="g6"
     transform="matrix(0.03219316,0,0,0.03219316,8.7082171,6.3903417)"
     style="fill:#87de87">
    <path
       d="M 399.624,73.501 381.496,58.998 c -4.018,-3.214 -9.726,-3.214 -13.744,0 L 349.624,73.501 335.997,62.599 c -4.583,-3.667 -11.373,-0.404 -11.373,5.466 v 75.436 h 100 V 68.065 c 0,-5.87 -6.79,-9.133 -11.373,-5.466 z"
       fill="#e9e3d5"
       id="path2"
       style="fill:#87de87" />
    <path
       d="m 413.251,62.599 -13.627,10.902 -5,-4 V 103.5 h -70 v 40 h 100 V 68.065 c 0,-5.87 -6.79,-9.133 -11.373,-5.466 z"
       fill="#d3cdbf"
       id="path4"
       style="fill:#87de87" />
  </g>
  <g
     id="g12"
     transform="matrix(0.03219316,0,0,0.03219316,8.7082171,6.3903417)"
     style="fill:#aaffaa">
    <path
       d="m 252.248,30 c 0,-16.569 -13.431,-30 -30,-30 H 66.501 c -16.569,0 -30,13.431 -30,30 v 113.501 h 215.747 z"
       fill="#8b9ba9"
       id="path8"
       style="fill:#aaffaa" />
    <path
       d="m 36.501,103.5 v 40.001 H 252.248 V 30 c 0,-16.568 -13.431,-30 -30,-30 v 88.5 c 0,8.284 -6.716,15 -15,15 z"
       fill="#6c7a88"
       id="path10"
       style="fill:#aaffaa" />
  </g>
  <g
     id="g18"
     transform="matrix(0.03219316,0,0,0.03219316,8.7082171,6.3903417)"
     style="fill:#87de87">
    <path
       d="m 199.248,29.125 c -7.496,0 -94.51,0 -109.747,0 -8.284,0 -15,6.716 -15,15 V 81 c 0,8.284 6.716,15 15,15 h 109.747 c 8.284,0 15,-6.716 15,-15 V 44.125 c 0,-8.284 -6.715,-15 -15,-15 z"
       fill="#b3e59f"
       id="path14"
       style="fill:#87de87" />
    <path
       d="m 199.248,29.125 c -1.045,0 -6.445,0 -15,0 V 66 H 74.501 v 15 c 0,8.284 6.716,15 15,15 h 109.747 c 8.284,0 15,-6.716 15,-15 V 44.125 c 0,-8.284 -6.715,-15 -15,-15 z"
       fill="#95d6a4"
       id="path16"
       style="fill:#87de87" />
  </g>
  <g
     id="g32"
     transform="matrix(0.03219316,0,0,0.03219316,8.7082171,6.3903417)"
     style="fill:#87de87">
    <g
       id="g24"
       style="fill:#87de87">
      <path
         d="M 482,133.5 H 15 c -8.284,0 -15,6.716 -15,15 v 255 L 248.501,433.502 497,403.5 v -255 c 0,-8.284 -6.716,-15 -15,-15 z"
         fill="#8b9ba9"
         id="path20"
         style="fill:#87de87" />
      <path
         d="M 482,133.5 H 467 V 413.501 L 497,403.5 v -255 c 0,-8.284 -6.716,-15 -15,-15 z"
         fill="#6c7a88"
         id="path22"
         style="fill:#87de87" />
    </g>
    <g
       id="g30"
       style="fill:#87de87">
      <path
         d="M 0,403.5 V 467 c 0,16.568 13.432,30 30,30 h 437 c 16.569,0 30,-13.432 30,-30 v -63.5 z"
         fill="#6c7a88"
         id="path26"
         style="fill:#87de87" />
      <path
         d="M 467,403.5 V 467 H 0 c 0,16.568 13.432,30 30,30 h 437 c 16.569,0 30,-13.432 30,-30 v -63.5 z"
         fill="#596775"
         id="path28"
         style="fill:#87de87" />
    </g>
  </g>
  <g
     id="g84"
     transform="matrix(0.03219316,0,0,0.03219316,8.7082171,6.3903417)"
     style="fill:#d5ffd5">
    <g
       fill="#e9e3d5"
       id="g56"
       style="fill:#d5ffd5">
      <path
         d="m 237.501,343.5 h -22 c -8.284,0 -15,6.716 -15,15 0,8.284 6.716,15 15,15 h 22 c 8.284,0 15,-6.716 15,-15 0,-8.284 -6.715,-15 -15,-15 z"
         id="path34"
         style="fill:#d5ffd5" />
      <path
         d="m 155.001,343.5 c -14.974,0 -88.469,0 -103.5,0 -8.284,0 -15,6.716 -15,15 0,8.284 6.716,15 15,15 h 103.5 c 8.284,0 15,-6.716 15,-15 0,-8.284 -6.715,-15 -15,-15 z"
         id="path36"
         style="fill:#d5ffd5" />
      <path
         d="m 237.501,283.5 h -22 c -8.284,0 -15,6.716 -15,15 0,8.284 6.716,15 15,15 h 22 c 8.284,0 15,-6.716 15,-15 0,-8.284 -6.715,-15 -15,-15 z"
         id="path38"
         style="fill:#d5ffd5" />
      <path
         d="m 73.501,283.5 h -22 c -8.284,0 -15,6.716 -15,15 0,8.284 6.716,15 15,15 h 22 c 8.284,0 15,-6.716 15,-15 0,-8.284 -6.715,-15 -15,-15 z"
         id="path40"
         style="fill:#d5ffd5" />
      <path
         d="m 155.001,283.5 h -22 c -8.284,0 -15,6.716 -15,15 0,8.284 6.716,15 15,15 h 22 c 8.284,0 15,-6.716 15,-15 0,-8.284 -6.715,-15 -15,-15 z"
         id="path42"
         style="fill:#d5ffd5" />
      <path
         d="m 237.501,223.5 h -22 c -8.284,0 -15,6.716 -15,15 0,8.284 6.716,15 15,15 h 22 c 8.284,0 15,-6.716 15,-15 0,-8.284 -6.715,-15 -15,-15 z"
         id="path44"
         style="fill:#d5ffd5" />
      <path
         d="m 73.501,223.5 h -22 c -8.284,0 -15,6.716 -15,15 0,8.284 6.716,15 15,15 h 22 c 8.284,0 15,-6.716 15,-15 0,-8.284 -6.715,-15 -15,-15 z"
         id="path46"
         style="fill:#d5ffd5" />
      <path
         d="m 155.001,223.5 h -22 c -8.284,0 -15,6.716 -15,15 0,8.284 6.716,15 15,15 h 22 c 8.284,0 15,-6.716 15,-15 0,-8.284 -6.715,-15 -15,-15 z"
         id="path48"
         style="fill:#d5ffd5" />
      <path
         d="m 215.501,193.5 h 22 c 8.284,0 15,-6.716 15,-15 0,-8.284 -6.716,-15 -15,-15 h -22 c -8.284,0 -15,6.716 -15,15 0,8.284 6.716,15 15,15 z"
         id="path50"
         style="fill:#d5ffd5" />
      <path
         d="m 73.501,163.5 h -22 c -8.284,0 -15,6.716 -15,15 0,8.284 6.716,15 15,15 h 22 c 8.284,0 15,-6.716 15,-15 0,-8.284 -6.715,-15 -15,-15 z"
         id="path52"
         style="fill:#d5ffd5" />
      <path
         d="m 155.001,163.5 h -22 c -8.284,0 -15,6.716 -15,15 0,8.284 6.716,15 15,15 h 22 c 8.284,0 15,-6.716 15,-15 0,-8.284 -6.715,-15 -15,-15 z"
         id="path54"
         style="fill:#d5ffd5" />
    </g>
    <g
       id="g82"
       style="fill:#d5ffd5">
      <path
         d="m 452,163.5 c -7.167,0 -119.736,0 -126,0 -8.284,0 -15,6.716 -15,15 v 180 c 0,8.284 6.716,15 15,15 h 126 c 8.284,0 15,-6.716 15,-15 0,-18.464 0,-161.672 0,-180 0,-8.284 -6.716,-15 -15,-15 z"
         fill="#9dc6fb"
         id="path58"
         style="fill:#d5ffd5" />
      <g
         fill="#80b4fb"
         id="g80"
         style="fill:#d5ffd5">
        <path
           d="m 363,163.5 h 52 v 30 h -52 z"
           id="path60"
           style="fill:#d5ffd5" />
        <path
           d="m 311,193.5 h 52 v 30 h -52 z"
           id="path62"
           style="fill:#d5ffd5" />
        <path
           d="m 415,193.5 h 52 v 30 h -52 z"
           id="path64"
           style="fill:#d5ffd5" />
        <path
           d="m 363,223.5 h 52 v 30 h -52 z"
           id="path66"
           style="fill:#d5ffd5" />
        <path
           d="m 311,253.5 h 52 v 30 h -52 z"
           id="path68"
           style="fill:#d5ffd5" />
        <path
           d="m 415,253.5 h 52 v 30 h -52 z"
           id="path70"
           style="fill:#d5ffd5" />
        <path
           d="m 363,283.5 h 52 v 30 h -52 z"
           id="path72"
           style="fill:#d5ffd5" />
        <path
           d="m 311,313.5 h 52 v 30 h -52 z"
           id="path74"
           style="fill:#d5ffd5" />
        <path
           d="m 415,313.5 h 52 v 30 h -52 z"
           id="path76"
           style="fill:#d5ffd5" />
        <path
           d="m 363,343.5 h 52 v 30 h -52 z"
           id="path78"
           style="fill:#d5ffd5" />
      </g>
    </g>
  </g>
  <g
     id="g88"
     transform="matrix(0.03219316,0,0,0.03219316,8.7082171,6.3903417)"
     style="fill:#d7f4d7">
    <path
       d="m 293.501,457.75 h -90 c -4.142,0 -7.5,-3.357 -7.5,-7.5 0,-4.143 3.358,-7.5 7.5,-7.5 h 90 c 4.142,0 7.5,3.357 7.5,7.5 0,4.143 -3.358,7.5 -7.5,7.5 z"
       fill="#8b9ba9"
       id="path86"
       style="fill:#d7f4d7" />
  </g>
</svg>
