<svg enable-background="new 0 0 24 24" height="512" viewBox="0 0 24 24" width="512" xmlns="http://www.w3.org/2000/svg"><path d="m12 8c-.414 0-.75-.336-.75-.75v-6.5c0-.414.336-.75.75-.75s.75.336.75.75v6.5c0 .414-.336.75-.75.75z" fill="#546e7a"/><path d="m12 8c-.161 0-.322-.052-.457-.156l-3.25-2.5c-.328-.252-.39-.723-.138-1.052.253-.328.724-.39 1.052-.137l2.793 2.149 2.793-2.148c.328-.253.799-.191 1.052.137.252.329.19.799-.138 1.052l-3.25 2.5c-.135.103-.296.155-.457.155z" fill="#546e7a"/><path d="m11.977 10.008-9.147 5.668v6.81l9.157 1.514v-13.788-.212z" fill="#ffcc80"/><path d="m11.987 10 .02 14 9.157-1.514v-6.81z" fill="#ffb74d"/><path d="m12.003 10 3.417 6.3h7.58l-1.956-4.62z" fill="#ffa726"/><path d="m11.997 10-3.417 6.3h-7.58l1.956-4.62z" fill="#ffb74d"/></svg>