<svg id="color" height="512" viewBox="0 0 24 24" width="512" xmlns="http://www.w3.org/2000/svg"><g fill="#607d8b"><path d="m1 8c.552 0 1-.447 1-1v-4c0-.552.449-1 1-1h4c.552 0 1-.447 1-1s-.448-1-1-1h-4c-1.654 0-3 1.346-3 3v4c0 .553.448 1 1 1z"/><path d="m3 24h4c.552 0 1-.447 1-1s-.448-1-1-1h-4c-.551 0-1-.448-1-1v-4c0-.553-.448-1-1-1s-1 .447-1 1v4c0 1.654 1.346 3 3 3z"/><path d="m17 24h4c1.654 0 3-1.346 3-3v-4c0-.553-.448-1-1-1s-1 .447-1 1v4c0 .552-.449 1-1 1h-4c-.552 0-1 .447-1 1s.448 1 1 1z"/><path d="m23 8c.552 0 1-.447 1-1v-4c0-1.654-1.346-3-3-3h-4c-.552 0-1 .447-1 1s.448 1 1 1h4c.551 0 1 .448 1 1v4c0 .553.448 1 1 1z"/></g><path d="m5 17.417v-2.5c0-.553.448-1 1-1h12c.552 0 1 .447 1 1v2.5c0 1.103-.897 2-2 2h-10c-1.103 0-2-.897-2-2z" fill="#90a4ae"/><path d="m5 10v-3c0-1.103.897-2 2-2h10c1.103 0 2 .897 2 2v3c0 .553-.448 1-1 1h-12c-.552 0-1-.447-1-1z" fill="#90a4ae"/><path d="m4 15h16c.552 0 1-.447 1-1s-.448-1-1-1h-16c-.552 0-1 .447-1 1s.448 1 1 1z" fill="#607d8b"/><path d="m7 0h-4c-1.654 0-3 1.346-3 3v4c0 .553.448 1 1 1s1-.447 1-1v-4c0-.552.449-1 1-1h4c.552 0 1-.447 1-1s-.448-1-1-1z" fill="#546d79"/><path d="m1 16c-.552 0-1 .447-1 1v4c0 1.654 1.346 3 3 3h4c.552 0 1-.447 1-1s-.448-1-1-1h-4c-.551 0-1-.448-1-1v-4c0-.553-.448-1-1-1z" fill="#546d79"/><path d="m12 15h-7v2.417c0 1.103.897 2 2 2h5z" fill="#7d8f97"/><path d="m12 5h-5c-1.103 0-2 .897-2 2v3c0 .553.448 1 1 1h6z" fill="#7d8f97"/><path d="m12 13h-8c-.552 0-1 .447-1 1s.448 1 1 1h1 7z" fill="#546d79"/></svg>