<?xml version="1.0" encoding="UTF-8" standalone="no"?>
<svg
   xmlns:dc="http://purl.org/dc/elements/1.1/"
   xmlns:cc="http://creativecommons.org/ns#"
   xmlns:rdf="http://www.w3.org/1999/02/22-rdf-syntax-ns#"
   xmlns:svg="http://www.w3.org/2000/svg"
   xmlns="http://www.w3.org/2000/svg"
   xmlns:sodipodi="http://sodipodi.sourceforge.net/DTD/sodipodi-0.dtd"
   xmlns:inkscape="http://www.inkscape.org/namespaces/inkscape"
   version="1.1"
   id="Capa_1"
   x="0px"
   y="0px"
   viewBox="0 0 32 32"
   xml:space="preserve"
   sodipodi:docname="shopping-bag.svg"
   width="512"
   height="512"
   inkscape:version="1.0.2 (e86c870879, 2021-01-15, custom)"><metadata
   id="metadata69"><rdf:RDF><cc:Work
       rdf:about=""><dc:format>image/svg+xml</dc:format><dc:type
         rdf:resource="http://purl.org/dc/dcmitype/StillImage" /><dc:title></dc:title></cc:Work></rdf:RDF></metadata><defs
   id="defs67" /><sodipodi:namedview
   pagecolor="#ffffff"
   bordercolor="#666666"
   borderopacity="1"
   objecttolerance="10"
   gridtolerance="10"
   guidetolerance="10"
   inkscape:pageopacity="0"
   inkscape:pageshadow="2"
   inkscape:window-width="1920"
   inkscape:window-height="1051"
   id="namedview65"
   showgrid="false"
   inkscape:snap-bbox="true"
   inkscape:bbox-nodes="true"
   inkscape:snap-bbox-edge-midpoints="true"
   inkscape:snap-page="true"
   inkscape:snap-object-midpoints="true"
   inkscape:snap-center="true"
   inkscape:bbox-paths="true"
   inkscape:zoom="0.83042846"
   inkscape:cx="189.45389"
   inkscape:cy="162.30416"
   inkscape:window-x="-9"
   inkscape:window-y="-9"
   inkscape:window-maximized="1"
   inkscape:current-layer="Capa_1" />
















<g
   id="g34">
</g>
<g
   id="g36">
</g>
<g
   id="g38">
</g>
<g
   id="g40">
</g>
<g
   id="g42">
</g>
<g
   id="g44">
</g>
<g
   id="g46">
</g>
<g
   id="g48">
</g>
<g
   id="g50">
</g>
<g
   id="g52">
</g>
<g
   id="g54">
</g>
<g
   id="g56">
</g>
<g
   id="g58">
</g>
<g
   id="g60">
</g>
<g
   id="g62">
</g>
<rect
   style="fill:#ffdda0;fill-opacity:1;stroke-width:0.0625"
   id="rect896"
   width="32"
   height="32"
   x="0"
   y="0"
   ry="6.25" /><path
   d="m 18.187698,12.047392 h -4.375395 c -0.161001,0 -0.291665,-0.123572 -0.291665,-0.275835 v -1.517298 c -8.6e-5,-1.2929439 1.112137,-2.3448044 2.479363,-2.3448044 1.367225,0 2.479361,1.0518605 2.479361,2.3448044 v 1.517217 c 0,0.152344 -0.130662,0.275916 -0.291664,0.275916 z m -4.08373,-0.551752 h 3.79198 v -1.241381 c 0,-0.9886599 -0.850554,-1.7931333 -1.896033,-1.7931333 -1.04548,0 -1.895947,0.8044734 -1.895947,1.7931333 z"
   id="path2"
   style="fill:#ff4500;stroke-width:0.0831057" /><rect
   x="-22.510868"
   y="-10.458095"
   transform="matrix(-0.9764064,-0.21594106,0.24004045,-0.97076289,0,0)"
   style="fill:#ffa07a;stroke-width:0.083116"
   width="4.0722408"
   height="4.1502953"
   id="rect8" /><rect
   x="-14.670793"
   y="-16.222166"
   transform="matrix(-0.99380836,0.11110778,-0.12403429,-0.99227793,0,0)"
   style="fill:#ff8c00;stroke-width:0.0831106"
   width="4.9092464"
   height="4.9821763"
   id="rect12" /><polygon
   style="fill:#ff4500"
   points="18.772,197.973 25.598,64.853 175.785,64.853 182.612,197.973 "
   id="polygon20"
   transform="matrix(0.08545694,0,0,0.0808191,7.3951698,7.0344546)" /><ellipse
   style="fill:#ff8c00;stroke-width:0.0831057"
   cx="18.187696"
   cy="13.93099"
   id="circle24"
   rx="0.58341455"
   ry="0.55175203" /><path
   d="m 18.187698,14.758578 c -0.482575,0 -0.875079,-0.371202 -0.875079,-0.827587 0,-0.456386 0.392504,-0.827588 0.875079,-0.827588 0.482575,0 0.875079,0.371202 0.875079,0.827588 0,0.456385 -0.392504,0.827587 -0.875079,0.827587 z m 0,-1.103423 c -0.16083,0 -0.291664,0.123734 -0.291664,0.275836 0,0.152101 0.130834,0.275835 0.291664,0.275835 0.16083,0 0.291664,-0.123734 0.291664,-0.275835 0,-0.152102 -0.130834,-0.275836 -0.291664,-0.275836 z"
   id="path26"
   style="fill:#ff8c00;stroke-width:0.0831057" /><ellipse
   style="fill:#ff8c00;stroke-width:0.0831057"
   cx="13.812303"
   cy="13.93099"
   id="circle28"
   rx="0.58341455"
   ry="0.55175203" /><path
   d="m 13.812303,14.758578 c -0.482576,0 -0.875079,-0.371202 -0.875079,-0.827587 0,-0.456386 0.392503,-0.827588 0.875079,-0.827588 0.482575,0 0.875079,0.371202 0.875079,0.827588 0,0.456385 -0.392504,0.827587 -0.875079,0.827587 z m 0,-1.103423 c -0.16083,0 -0.291665,0.123734 -0.291665,0.275836 0,0.152101 0.130835,0.275835 0.291665,0.275835 0.16083,0 0.291665,-0.123734 0.291665,-0.275835 0,-0.152102 -0.130836,-0.275836 -0.291665,-0.275836 z"
   id="path30"
   style="fill:#ff8c00;stroke-width:0.0831057" /><path
   d="m 16.000001,18.068929 c -1.36714,0 -2.479363,-1.051861 -2.479363,-2.344805 v -1.517217 c 0,-0.152263 0.130664,-0.275836 0.291665,-0.275836 0.161,0 0.291665,0.123573 0.291665,0.275836 v 1.517217 c 0,0.98866 0.850552,1.793133 1.896032,1.793133 1.045479,0 1.896033,-0.804393 1.896033,-1.793133 v -1.410859 c -0.01461,-0.03265 -0.02248,-0.0687 -0.02248,-0.106358 0,-0.152263 0.130664,-0.275836 0.291665,-0.275836 h 0.02248 c 0.161002,0 0.291664,0.123573 0.291664,0.275836 v 1.517217 c 0,1.292944 -1.112221,2.344805 -2.479361,2.344805 z"
   id="path32"
   style="fill:#ff8c00;stroke-width:0.0831057" /></svg>
